<svg width="20" height="8" viewBox="0 0 20 8" fill="none" xmlns="http://www.w3.org/2000/svg">
<path fill-rule="evenodd" clip-rule="evenodd" d="M1 0C1.55228 0 2 0.447715 2 1V5C2 5.26522 2.10536 5.51957 2.29289 5.70711C2.48043 5.89464 2.73478 6 3 6H17C17.2652 6 17.5196 5.89464 17.7071 5.70711C17.8946 5.51957 18 5.26522 18 5V1C18 0.447715 18.4477 0 19 0C19.5523 0 20 0.447715 20 1V5C20 5.79565 19.6839 6.55871 19.1213 7.12132C18.5587 7.68393 17.7957 8 17 8H3C2.20435 8 1.44129 7.68393 0.87868 7.12132C0.31607 6.55871 0 5.79565 0 5V1C0 0.447715 0.447715 0 1 0Z" fill="white"/>
</svg>
