<svg width="11" height="11" viewBox="0 0 11 11" fill="none" xmlns="http://www.w3.org/2000/svg">
<path d="M8.99971 5.36948C9.12313 6.20171 8.98097 7.05166 8.59347 7.79844C8.20597 8.54522 7.59286 9.1508 6.84134 9.52905C6.08982 9.90731 5.23816 10.039 4.4075 9.9053C3.57683 9.77164 2.80947 9.37947 2.21455 8.78456C1.61962 8.18965 1.22744 7.42231 1.09377 6.59167C0.96011 5.76103 1.09177 4.90939 1.47003 4.15789C1.8483 3.40639 2.45389 2.79329 3.20069 2.4058C3.94749 2.01831 4.79746 1.87616 5.62971 1.99957C6.47863 2.12545 7.26456 2.52102 7.87141 3.12785C8.47825 3.73467 8.87383 4.52058 8.99971 5.36948Z" stroke="black" stroke-width="2" stroke-linecap="round" stroke-linejoin="round"/>
</svg>
